<?xml version="1.0" encoding="UTF-8" standalone="no"?>
<svg
   width="186.46935"
   height="192.4628"
   version="1.1"
   id="svg1"
   xmlns="http://www.w3.org/2000/svg"
   xmlns:svg="http://www.w3.org/2000/svg">
  <defs
     id="defs1" />
  <g
     id="g1"
     transform="matrix(1.0050401,0,0,0.96228611,1.4104965,-0.87119241)"
     style="fill:#c87137">
    <path
       d="m 58.5,176.25 -19.486773,20.90572 -3.741181,1.89142 c 0,0 -21.183553,-31.97962 -29.5485008,-57.39141 C -3.0786953,114.91548 -0.53968219,89.002797 2,80.5 2.074451,80.25074 7.1181343,54.802397 25.745591,33.68715 37.688663,20.14902 53.214524,11.40794 62,7.25 71.104182,2.9412247 82,1.5 98,2 c 16,0.5 29.85114,4.5992141 41,12.25 12.02205,8.25 20.09658,17.262556 24.52205,23.31285 C 168.27646,44.06285 173.5,53 175.75,58.25 c 7.14301,16.66703 7.75,28 7.25,45.25 -0.5,17.25 -2.25,26.25 -8,41 -5.75,14.75 -7.9515,20.85859 -16.98236,33.26571 -7.1533,9.82761 -15.47546,20.78852 -16.80291,21.10999 0,0 -0.91623,2.85999 -4.16623,-0.89001 C 131.845,191.98165 110.66835,171.47828 114,167.75 124.5,156 126.16366,153.74321 129,158 c 9.7015,14.56005 24.25,-30 22.75,-51 -1.46067,-20.449423 -9.82936,-35.798536 -15,-42 -8.01142,-9.608589 -20.75,-18.75 -40.5,-18.75 -19.411659,0 -34.62447,5.129135 -45,16 -8.723545,9.140013 -12.508818,19.157124 -15.5,27.5 -4.255624,11.8696 -5.660251,24.48579 -5.276455,33.67144 C 30.883447,133.23188 32.75,140.75 34.75,148.5 c 1.55171,6.01288 6.80126,13.35142 8.5,13.75 2.306157,0.5411 8.333774,-4.81285 9.544091,-4.81285 1.719136,0 4.062059,4.94795 6.705909,8.31285 5.5,7 -1,10.5 -1,10.5 z"
       style="fill:#c87137;stroke-width:2px"
       fill="#c87137"
       stroke="#000000"
       stroke-width="2.000000"
       id="path1" />
  </g>
</svg>
